<svg height="512pt" viewBox="-55 0 512 512" width="512pt" xmlns="http://www.w3.org/2000/svg"><path d="m96.632812 400.195312c11.8125-9.632812 19.367188-24.296874 19.367188-40.695312 0-28.949219-23.550781-52.5-52.5-52.5s-52.5 23.550781-52.5 52.5c0 16.398438 7.554688 31.0625 19.367188 40.695312-17.75 6.890626-30.367188 24.152344-30.367188 44.304688v11.324219c0 4.140625 3.359375 7.5 7.5 7.5s7.5-3.359375 7.5-7.5v-11.324219c0-17.921875 14.578125-32.5 32.5-32.5h32c17.921875 0 32.5 14.578125 32.5 32.5v50c0 1.378906-1.121094 2.5-2.5 2.5h-92c-1.378906 0-2.5-1.121094-2.5-2.5v-6.863281c0-4.140625-3.359375-7.5-7.5-7.5s-7.5 3.359375-7.5 7.5v6.863281c0 9.648438 7.851562 17.5 17.5 17.5h92c9.648438 0 17.5-7.851562 17.5-17.5v-50c0-20.152344-12.617188-37.414062-30.367188-44.304688zm-70.632812-40.695312c0-20.679688 16.820312-37.5 37.5-37.5s37.5 16.820312 37.5 37.5-16.820312 37.5-37.5 37.5-37.5-16.820312-37.5-37.5zm0 0"/><path d="m371.632812 400.195312c11.8125-9.632812 19.367188-24.296874 19.367188-40.695312 0-28.949219-23.550781-52.5-52.5-52.5s-52.5 23.550781-52.5 52.5c0 16.398438 7.554688 31.0625 19.367188 40.695312-17.75 6.890626-30.367188 24.152344-30.367188 44.304688v50c0 9.648438 7.851562 17.5 17.5 17.5h36.273438c4.144531 0 7.5-3.359375 7.5-7.5s-3.355469-7.5-7.5-7.5h-36.273438c-1.378906 0-2.5-1.121094-2.5-2.5v-50c0-17.921875 14.578125-32.5 32.5-32.5h32c17.921875 0 32.5 14.578125 32.5 32.5v50c0 1.378906-1.121094 2.5-2.5 2.5h-23.492188c-4.144531 0-7.5 3.359375-7.5 7.5s3.355469 7.5 7.5 7.5h23.492188c9.648438 0 17.5-7.851562 17.5-17.5v-50c0-20.152344-12.617188-37.414062-30.367188-44.304688zm-70.632812-40.695312c0-20.679688 16.820312-37.5 37.5-37.5s37.5 16.820312 37.5 37.5-16.820312 37.5-37.5 37.5-37.5-16.820312-37.5-37.5zm0 0"/><path d="m331 287.761719c0 4.140625 3.355469 7.5 7.5 7.5s7.5-3.359375 7.5-7.5v-30c0-4.140625-3.355469-7.5-7.5-7.5h-130v-32.714844c0-4.144531-3.355469-7.5-7.5-7.5-4.140625 0-7.5 3.355469-7.5 7.5v32.714844h-130c-4.140625 0-7.5 3.359375-7.5 7.5v30c0 4.140625 3.359375 7.5 7.5 7.5s7.5-3.359375 7.5-7.5v-22.5h260zm0 0"/><path d="m155 205h92c9.648438 0 17.5-7.851562 17.5-17.5v-48c0-20.71875-12.796875-38.507812-30.902344-45.875 12.117188-9.625 19.902344-24.484375 19.902344-41.125 0-8.253906-1.863281-16.15625-5.535156-23.484375-1.855469-3.703125-6.359375-5.203125-10.066406-3.347656-3.703126 1.855469-5.199219 6.363281-3.34375 10.066406 2.617187 5.226563 3.945312 10.867187 3.945312 16.765625 0 20.679688-16.820312 37.5-37.5 37.5s-37.5-16.820312-37.5-37.5c0-20.675781 16.820312-37.5 37.5-37.5 4.949219 0 9.757812.949219 14.289062 2.816406 3.832032 1.578125 8.214844-.242187 9.796876-4.074218 1.578124-3.828126-.246094-8.210938-4.074219-9.792969-6.355469-2.621094-13.089844-3.949219-20.011719-3.949219-28.949219 0-52.5 23.550781-52.5 52.5 0 16.640625 7.785156 31.5 19.902344 41.125-18.105469 7.367188-30.902344 25.15625-30.902344 45.875v48c0 9.648438 7.851562 17.5 17.5 17.5zm42.257812-73.421875h7.484376l7.59375 32.71875-11.335938 5.457031-11.335938-5.457031zm9.597657-26.578125-2.304688 11.578125h-7.101562l-2.304688-11.578125zm-54.355469 34.5c0-16.621094 11.816406-30.535156 27.488281-33.785156l3.636719 18.246094-9.929688 42.792968c-.792968 3.417969.890626 6.929688 4.050782 8.449219l20 9.632813c2.050781.988281 4.445312.992187 6.507812 0l20-9.632813c3.160156-1.519531 4.84375-5.03125 4.050782-8.449219l-9.933594-42.792968 3.636718-18.246094c15.675782 3.25 27.492188 17.164062 27.492188 33.785156v48c0 1.378906-1.121094 2.5-2.5 2.5h-92c-1.378906 0-2.5-1.121094-2.5-2.5zm0 0"/></svg>